<svg xmlns="http://www.w3.org/2000/svg" width="16" height="16" viewBox="0 0 16 16">
  <g id="Home-Selected" transform="translate(-207 -260)">
    <rect id="Retângulo_1454" data-name="Retângulo 1454" width="16" height="16" transform="translate(207 260)" fill="none"/>
    <path id="Caminho_262" data-name="Caminho 262" d="M15.6.4A2.1,2.1,0,0,0,14.5,0a3.079,3.079,0,0,0-1.3.3A7.459,7.459,0,0,0,12,1a3.515,3.515,0,0,0-.9.7A5.221,5.221,0,0,0,9.9,3L3.4,1.1c-.2,0-.3-.1-.6,0a.764.764,0,0,0-.5.2l-.7.8c-.2.1-.2.2-.2.4s.1.3.3.4L7.1,6.4c-.1.2-.7.8-1.6,1.9L2.2,7.8a1.209,1.209,0,0,0-1,.3L.1,9.3a.367.367,0,0,0-.1.3q0,.15.3.3l3.8,1.3a.988.988,0,0,1,.7.7l1.3,3.8q.15.3.3.3a.367.367,0,0,0,.3-.1l1.1-1.1a.959.959,0,0,0,.3-1l-.5-3.3c.1-.1.7-.6,1.9-1.5L13,14.4a1.38,1.38,0,0,0,.4.3c.2,0,.3,0,.4-.1l.8-.8a.764.764,0,0,0,.2-.5v-.6L13,6.1a11.973,11.973,0,0,0,1.4-1.2,4.846,4.846,0,0,0,.9-1.3,4.923,4.923,0,0,0,.6-1.7A1.569,1.569,0,0,0,15.6.4Z" transform="translate(207 260)" fill="#fff"/>
  </g>
</svg>

