<svg xmlns="http://www.w3.org/2000/svg" xmlns:xlink="http://www.w3.org/1999/xlink" width="33.92" height="33.92" viewBox="0 0 33.92 33.92">
  <defs>
    <clipPath id="clip-path">
      <rect width="23.971" height="24" fill="none"/>
    </clipPath>
  </defs>
  <g id="Travel" transform="translate(26.862 -313.947) rotate(45)">
    <g id="Componente" transform="translate(215 228.988)" clip-path="url(#clip-path)">
      <path id="Caminho_262" data-name="Caminho 262" d="M23.4.6A3.145,3.145,0,0,0,21.75,0,4.619,4.619,0,0,0,19.8.45,11.188,11.188,0,0,0,18,1.5a5.272,5.272,0,0,0-1.35,1.05,7.832,7.832,0,0,0-1.8,1.95L5.1,1.65c-.3,0-.45-.15-.9,0a1.146,1.146,0,0,0-.75.3L2.4,3.15c-.3.15-.3.3-.3.6s.15.45.45.6l8.1,5.25c-.15.3-1.05,1.2-2.4,2.85L3.3,11.7a1.813,1.813,0,0,0-1.5.45L.15,13.95A.551.551,0,0,0,0,14.4q0,.225.45.45l5.7,1.95A1.482,1.482,0,0,1,7.2,17.85l1.95,5.7q.225.45.45.45a.551.551,0,0,0,.45-.15L11.7,22.2a1.439,1.439,0,0,0,.45-1.5l-.75-4.95c.15-.15,1.05-.9,2.85-2.25l5.25,8.1a2.071,2.071,0,0,0,.6.45c.3,0,.45,0,.6-.15l1.2-1.2a1.146,1.146,0,0,0,.3-.75v-.9l-2.7-9.9a17.959,17.959,0,0,0,2.1-1.8A7.269,7.269,0,0,0,22.95,5.4a7.385,7.385,0,0,0,.9-2.55A2.354,2.354,0,0,0,23.4.6Z" fill="#8b8b8b"/>
    </g>
  </g>
</svg>
