<svg xmlns="http://www.w3.org/2000/svg" xmlns:xlink="http://www.w3.org/1999/xlink" width="78.58" height="78.58" viewBox="0 0 78.58 78.58">
  <defs>
    <filter id="Caminho_286" x="0" y="0" width="78.58" height="78.58" filterUnits="userSpaceOnUse">
      <feOffset dy="3" input="SourceAlpha"/>
      <feGaussianBlur stdDeviation="3" result="blur"/>
      <feFlood flood-opacity="0.322"/>
      <feComposite operator="in" in2="blur"/>
      <feComposite in="SourceGraphic"/>
    </filter>
  </defs>
  <g transform="matrix(1, 0, 0, 1, 0, 0)" filter="url(#Caminho_286)">
    <path id="Caminho_286-2" data-name="Caminho 286" d="M30.29,0A30.4,30.4,0,0,1,55.478,13.46a29.9,29.9,0,0,1,5.1,16.831A30.29,30.29,0,1,1,30.29,0Z" transform="translate(9 6)" fill="#7b1fa2"/>
  </g>
  <path id="ic_local_taxi_24px" d="M30.955,8.285a2.624,2.624,0,0,0-2.493-1.774h-4.39V3H13.536V6.512H9.146A2.641,2.641,0,0,0,6.652,8.285L3,18.8V32.851a1.761,1.761,0,0,0,1.756,1.756H6.512a1.761,1.761,0,0,0,1.756-1.756V31.1H29.339v1.756A1.761,1.761,0,0,0,31.1,34.607h1.756a1.761,1.761,0,0,0,1.756-1.756V18.8ZM9.146,25.827a2.634,2.634,0,1,1,2.634-2.634A2.63,2.63,0,0,1,9.146,25.827Zm19.315,0A2.634,2.634,0,1,1,31.1,23.193,2.63,2.63,0,0,1,28.461,25.827ZM6.512,17.048l2.634-7.9H28.461l2.634,7.9Z" transform="translate(20.926 16.17)" fill="#fff"/>
</svg>
