<svg xmlns="http://www.w3.org/2000/svg" xmlns:xlink="http://www.w3.org/1999/xlink" width="36" height="36" viewBox="0 0 36 36">
  <defs>
    <clipPath id="clip-path">
      <rect width="36" height="36" fill="none"/>
    </clipPath>
    <linearGradient id="linear-gradient" x1="0.786" y1="0.12" x2="0.265" y2="0.765" gradientUnits="objectBoundingBox">
      <stop offset="0" stop-color="#7b1fa2"/>
      <stop offset="1" stop-color="#7b1fa2"/>
    </linearGradient>
  </defs>
  <g id="Componente" clip-path="url(#clip-path)">
    <path id="Caminho_268" data-name="Caminho 268" d="M18,0A18,18,0,1,1,0,18,18,18,0,0,1,18,0Z" fill="url(#linear-gradient)"/>
    <g id="Compose" transform="translate(-280 -227)">
      <rect id="Retângulo_324" data-name="Retângulo 324" width="16" height="16" transform="translate(290 237)" fill="none"/>
      <path id="Caminho_110" data-name="Caminho 110" d="M8.154,3.077,2.462,8.923,0,16l7.077-2.308L12.769,8Zm7.231-.462-2-2a1.865,1.865,0,0,0-2.769,0L8.923,2.308l4.615,4.769,1.846-1.846A1.95,1.95,0,0,0,16,3.846,1.9,1.9,0,0,0,15.385,2.615Z" transform="translate(290 237)" fill="#fff"/>
    </g>
  </g>
</svg>
